# xmcd
#
# Track frame offsets:
#	150
#	19546
#	35049
#	50232
#	73371
#	88214
#	104170
#	119493
#	132573
#	149958
#	163689
#	181756
#	198097
#	210688
#	226734
#
# Disc length: 3292 seconds
#
# Revision: 1
# Processed by: cddbd v1.5.2PL0 Copyright (c) Steve Scherf et al.
# Submitted via: audiograbber 1.83.01
#
DISCID=ee0cda0f
DTITLE=Judds, The - CB90010
DYEAR=1900
DGENRE=Karaoke
TTITLE0=Grandpa
TTITLE1=Have Mercy
TTITLE2=I Know Where I'm Going
TTITLE3=Love Can Build A Bridge
TTITLE4=Mama He's Crazy
TTITLE5=Why Not Me
TTITLE6=Change Of Heart
TTITLE7=Girls Night Out
TTITLE8=Give A Little Love
TTITLE9=Let Me Tell You About Love
TTITLE10=Love Is Alive
TTITLE11=Maybe Your Baby's Got The Blues
TTITLE12=Rockin' With The Rhythm Of The Rain
TTITLE13=Turn It Loose
TTITLE14=Young Love
EXTD=
EXTT0=
EXTT1=
EXTT2=
EXTT3=
EXTT4=
EXTT5=
EXTT6=
EXTT7=
EXTT8=
EXTT9=
EXTT10=
EXTT11=
EXTT12=
EXTT13=
EXTT14=
PLAYORDER=
